<?xml version="1.0" encoding="UTF-8"?>
<svg version="1.1" viewBox="0 0 900 900" width="80" height="80" xmlns="http://www.w3.org/2000/svg" style="background-color:#ebebeb">
<path transform="translate(0)" d="m0 0h900v900h-900z" fill="#ebebeb"/>
<path transform="translate(534,81)" d="m0 0h63l-2 2-60 19-35 12-18 7-26 10-26 11-35 16-16 8-17 9-13 8-22 15-12 11-8 7-7 10-6 12-2 17 3 16 7 16 7 11 11 13 7 7 11 9 16 12 18 11 13 8 30 15 12 5 13 6-2 2-90 21h-7l-15-9-17-12-12-9-11-9-14-12-31-31-9-11-11-15-12-23-5-14-3-14-1-13 2-15 4-12 7-14 7-9 9-11 8-7 11-10 18-12 21-12 26-11 19-7 33-10 36-8 47-8 34-4z" fill="#CB1620"/>
<path transform="translate(558,140)" d="m0 0 6 1 14 8 23 16 16 13 11 9 15 14 17 17 9 11 10 13 11 18 9 19 4 13 2 11v15l-4 17-8 16-8 11-11 12-9 9-12 9-15 10-19 11-17 8-24 9-33 10-33 8-39 7-37 5-43 4-57 2h-27l2-2 35-11 46-15 35-13 40-16 25-11 23-11 16-8 21-12 24-16 11-9 4-4h2l2-4 9-10 7-14 2-8v-16l-3-12-6-14-8-12-12-14-12-11-20-15-21-13-22-12-29-14-13-5-1-2 15-4 48-11z" fill="#182172"/>
<path transform="translate(307,571)" d="m0 0h20l16 4 14 7 8 9 4 10 1 4v15l-3 9-5 7h13v15l-1 1h-69l-14-4-12-6-7-6-5-9-3-10v-12l5-13 9-10 10-6 13-4z" fill="#030207"/>
<path transform="translate(669,572)" d="m0 0 2 1v78l-1 1h-33l-7-8-24-36-9-14h-1v24l-1 33-2 1h-22v-79h36l7 8 8 12 13 19 10 14 1 1 1-54z" fill="#030207"/>
<path transform="translate(741,571)" d="m0 0h21l17 4 11 6 6 7 3 6v5l-1 1h-25l-5-8-10-4h-13l-11 4-8 7-3 7v13l4 9 6 5 11 4h18l7-1 1-1 1-10h-15l-5-1-1-2v-14l2-1h44l1 1v41l-1 1-21 2h-40l-12-3-14-7-6-5-6-10-2-5v-16l4-11 6-8 8-7 11-5 10-3z" fill="#030208"/>
<path transform="translate(484,572)" d="m0 0h26l5 5 9 17 26 52 1 5-2 1h-22l-4-4-4-9v-2h-43l-8 15h-24l1-6 10-20 12-22 8-16 8-15z" fill="#030208"/>
<path transform="translate(597,81)" d="m0 0v3l-1 2h2v8l-2 2-25 8-33 11-34 12-29 11-32 12-24 10-16 8-23 12-21 13-12 9-11 9-10 8-8 6-9 2-5 4v-3l5-10-7 5 2-4 9-10 8-7 10-8 15-10 20-12 20-11 33-15 25-11 27-11 18-7 20-7 41-14 36-11z" fill="#E0C6CA"/>
<path transform="translate(118,573)" d="m0 0h26v62h46l1 1v15l-1 1h-71l-1-1z" fill="#03030B"/>
<path transform="translate(241,325)" d="m0 0 7 6 28 28 11 9 16 13 16 11 15 10 7 4h7l47-11 40-9 6-2v3 3 6l-4 4-13 5-21 5h-9v2l-19 1-2-2-1 2-6 2-10 1-2-1-10 1h-8l-15-10-11-8-16-13-11-9-7-6-7-8-18-18 1-2 4 3v2h3l-7-9-11-11z" fill="#E0C6CA"/>
<path transform="translate(213,573)" d="m0 0h27v74l-1 4-2 1h-23l-1-1z" fill="#03030B"/>
<path transform="translate(311,587)" d="m0 0h13l9 4 5 5 4 7 1 4v12l-5 10-7 6-8 3h-10l-11-4-6-5-4-9-1-5v-7l4-11 8-7z" fill="#FDFCFC"/>
<path transform="translate(397,573)" d="m0 0h26v78l-1 1h-24l-1-1z" fill="#030208"/>
<path transform="translate(497,593)" d="m0 0 2 1 9 21 1 4h-24l1-5 10-20z" fill="#FDFCFC"/>
<path transform="translate(300,260)" d="m0 0 4 2 8 22 7 14 8 13v3h2l2 4 3 2v3l4 1-1 3-14-12-8-8 1-5-6-11-7-14-3-8z" fill="#E0C6CA"/>
<path transform="translate(271,359)" d="m0 0 4 1 7 6 10 6 14 11 23 16 5 5-1 3-5-3v-2l-5-2-11-7-9-5-13-10-11-9-2-4-3-1z" fill="#F9F6F6"/>
<path transform="translate(385,399)" d="m0 0 8 1-3 3-15 2-2 2-8-1-1-2 9-1 5-1 2-2z" fill="#FEFEFE"/>
<path transform="translate(313,389)" d="m0 0 5 2 11 8 3 3-4-1-11-7z" fill="#E0C6CA"/>
<path transform="translate(322,397)" d="m0 0 11 6v4l-5-3v-2l-5-2z" fill="#FEFEFE"/>
</svg>
