<?xml version="1.0" encoding="UTF-8"?>
<svg xmlns="http://www.w3.org/2000/svg" xmlns:xlink="http://www.w3.org/1999/xlink" width="50px" height="50px" viewBox="0 0 200 200" version="1.1" style="background-color:#ebebeb">
<path transform="translate(0)" d="m0 0h900v900h-900z" fill="#ebebeb"/>
<g id="surface1">
<path style=" stroke:none;fill-rule:nonzero;fill:rgb(16.862745%,28.235294%,59.215686%);fill-opacity:1;" d="M 44.667969 24.332031 L 45.332031 24.5 L 45.332031 24.832031 L 46 25.167969 L 47.667969 26.667969 L 49.5 28.167969 L 51.5 30 L 53.332031 31.5 L 55.5 33.5 L 57.332031 35 L 59.5 37 L 61.332031 38.5 L 63.332031 40.332031 L 64.667969 41.5 L 67 43.5 L 68.667969 45 L 70 46.167969 L 72.332031 48.167969 L 74 49.667969 L 75.832031 51.167969 L 77.832031 53 L 79.667969 54.5 L 82 56.667969 L 83.832031 58.167969 L 85.667969 59.832031 L 87 61 L 89.5 63.167969 L 91.832031 65.167969 L 93.667969 66.832031 L 95.5 68.332031 L 97.667969 70.332031 L 99.5 71.832031 L 100.167969 71.832031 L 102 70.167969 L 103.832031 68.667969 L 105.832031 66.832031 L 107.667969 65.332031 L 109.5 63.667969 L 111.332031 62.167969 L 113.332031 60.332031 L 115.167969 58.832031 L 117.167969 57 L 119 55.5 L 120.832031 53.832031 L 122.667969 52.332031 L 124.5 50.667969 L 126.332031 49.167969 L 128.332031 47.332031 L 130.167969 45.832031 L 132 44.167969 L 133.832031 42.667969 L 136 40.667969 L 137.832031 39.167969 L 139.667969 37.5 L 141.5 36 L 143.5 34.167969 L 145.332031 32.667969 L 147.332031 30.832031 L 149.167969 29.332031 L 151 27.667969 L 152.832031 26.167969 L 154.832031 24.332031 L 155.332031 24.5 L 159.667969 40.832031 L 164.167969 57.667969 L 169 75.832031 L 173.5 92.667969 L 178.332031 110.832031 L 182.832031 127.667969 L 187.667969 145.832031 L 192.167969 162.667969 L 194.832031 172.667969 L 195.332031 174.5 L 195.332031 175.167969 L 176.5 175.332031 L 176 175 L 174.5 169.667969 L 170.5 154.5 L 166 137.667969 L 162.5 124.332031 L 160 115 L 155.5 98 L 152.667969 87.332031 L 149.332031 74.832031 L 145.667969 61 L 144.832031 57.667969 L 144.832031 57.332031 L 143.832031 58 L 142 59.667969 L 140.167969 61.167969 L 137.667969 63.332031 L 135.332031 65.332031 L 133.667969 66.832031 L 131.832031 68.332031 L 130.167969 69.832031 L 128.332031 71.332031 L 126.5 73 L 124.667969 74.5 L 122.667969 76.332031 L 120.832031 77.832031 L 115.832031 82.167969 L 113.5 84.167969 L 111.832031 85.667969 L 110 87.167969 L 108.332031 88.667969 L 106.5 90.167969 L 104.832031 91.667969 L 103 93.167969 L 101.167969 94.832031 L 99.832031 95.832031 L 98.667969 94.832031 L 96.832031 93.332031 L 95.167969 91.832031 L 93.832031 90.667969 L 91.5 88.667969 L 89.832031 87.167969 L 88 85.667969 L 86 83.832031 L 84.167969 82.332031 L 82.167969 80.5 L 80.332031 79 L 78.332031 77.167969 L 76.5 75.667969 L 74.5 73.832031 L 72.667969 72.332031 L 70.832031 70.667969 L 69 69.167969 L 67 67.332031 L 65.167969 65.832031 L 63 63.832031 L 61.167969 62.332031 L 59.167969 60.5 L 57.332031 59 L 55.667969 57.5 L 55.167969 57.332031 L 54.832031 59 L 51.332031 72.167969 L 49.5 79.167969 L 45 96.167969 L 41 111.167969 L 37.167969 125.667969 L 33.167969 140.667969 L 30.667969 150 L 28.832031 157 L 26 167.5 L 24.167969 174.5 L 23.832031 175.167969 L 4.5 175.167969 L 5.167969 172.5 L 10 154.332031 L 14.5 137.5 L 19.332031 119.332031 L 22.667969 106.832031 L 26.832031 91.332031 L 28.667969 84.332031 L 32.167969 71.332031 L 34 64.332031 L 37.332031 51.832031 L 39.5 43.832031 L 41.332031 36.832031 L 44 26.832031 Z M 44.667969 24.332031 "/>
<path style=" stroke:none;fill-rule:nonzero;fill:rgb(16.862745%,28.235294%,59.215686%);fill-opacity:1;" d="M 141.5 68 L 141.832031 68.5 L 151.832031 106 L 154.332031 115.332031 L 157.667969 127.832031 L 162.167969 144.667969 L 165.5 157.167969 L 169.332031 171.5 L 170.167969 174.5 L 170.167969 175.167969 L 150.5 175.332031 L 150 175 L 147.832031 167 L 142.167969 146 L 137.832031 129.832031 L 135 119.332031 L 130 100.832031 L 129.167969 101.332031 L 126.667969 103.667969 L 125.332031 104.832031 L 122 107.832031 L 120 109.667969 L 118.667969 110.832031 L 117 112.332031 L 115.667969 113.5 L 113.5 115.5 L 112.167969 116.667969 L 110.5 118.167969 L 109.167969 119.332031 L 107.5 120.832031 L 105.5 122.667969 L 103.667969 124.167969 L 102.5 125.332031 L 100.667969 126.832031 L 100 127.5 L 99.332031 127.332031 L 97.832031 125.832031 L 96.5 124.667969 L 94.832031 123.167969 L 93.5 122 L 91.832031 120.5 L 89.667969 118.5 L 88.332031 117.332031 L 86.667969 115.832031 L 85.332031 114.667969 L 83.332031 112.832031 L 82 111.667969 L 80.332031 110.167969 L 79 109 L 76.832031 107 L 75.5 105.832031 L 73.832031 104.332031 L 72.5 103.167969 L 70.832031 101.667969 L 69.667969 100.667969 L 68.5 105 L 64.5 120.167969 L 61.332031 132 L 59.5 139 L 51.5 169.332031 L 50 174.832031 L 49.832031 175.167969 L 29.667969 175.167969 L 30.332031 172.5 L 34.832031 155.667969 L 39.5 138.167969 L 42 128.832031 L 45.332031 116.332031 L 49.832031 99.5 L 53.167969 87 L 55.667969 77.667969 L 57.832031 69.667969 L 58.332031 68.167969 L 59 68.5 L 63.667969 72.5 L 65.332031 74 L 67.167969 75.5 L 69 77.167969 L 70.832031 78.667969 L 72.832031 80.5 L 74.167969 81.667969 L 76.5 83.667969 L 78.167969 85.167969 L 80 86.667969 L 81.832031 88.332031 L 83.667969 89.832031 L 85.667969 91.667969 L 87.5 93.167969 L 89.5 95 L 91.332031 96.5 L 93.5 98.5 L 95.332031 100 L 97.167969 101.667969 L 99 103.167969 L 99.5 103.667969 L 100.332031 103.5 L 102.5 101.5 L 104.332031 100 L 106.167969 98.332031 L 108 96.832031 L 109.667969 95.332031 L 111.5 93.832031 L 113.332031 92.167969 L 115.167969 90.667969 L 116.832031 89.167969 L 118.667969 87.667969 L 120.5 86 L 122.332031 84.5 L 124 83 L 125.832031 81.5 L 127.832031 79.667969 L 129.667969 78.167969 L 131.332031 76.667969 L 133.167969 75.167969 L 134.832031 73.667969 L 136.667969 72.167969 L 138.5 70.5 L 140.332031 69 Z M 141.5 68 "/>
<path style=" stroke:none;fill-rule:nonzero;fill:rgb(16.862745%,28.235294%,59.215686%);fill-opacity:1;" d="M 72.667969 111 L 73.5 111.5 L 75.5 113.332031 L 77.332031 114.832031 L 79 116.332031 L 80.832031 117.832031 L 82.832031 119.667969 L 84.667969 121.167969 L 86.332031 122.667969 L 88.167969 124.167969 L 89.167969 125 L 89.332031 125.667969 L 87.5 132.332031 L 84.667969 142.667969 L 83.832031 145.667969 L 83.5 146.332031 L 84.5 145.667969 L 87.167969 143.5 L 89 142 L 94.332031 137.667969 L 98 134.667969 L 100.832031 132.332031 L 102.5 131 L 105.167969 128.832031 L 108.832031 125.832031 L 111.5 123.667969 L 113.332031 122.167969 L 118.667969 117.832031 L 120.5 116.332031 L 122.167969 115 L 124.832031 112.832031 L 125.5 112.832031 L 128.5 122.832031 L 130.667969 130.167969 L 130.5 131 L 128 133.167969 L 126.167969 134.667969 L 123.332031 137 L 121 139 L 119.332031 140.332031 L 117.167969 142.167969 L 115.332031 143.667969 L 112.832031 145.667969 L 113.167969 146.332031 L 115.667969 148.667969 L 116.832031 149.832031 L 118.167969 151 L 120.167969 153 L 121.5 154.167969 L 123.5 156.167969 L 124.832031 157.332031 L 127.167969 159.667969 L 128.5 160.832031 L 130.332031 162.667969 L 131.667969 163.832031 L 133.667969 165.832031 L 135 167 L 137 169 L 138.332031 170.167969 L 140.167969 172 L 141.5 173.167969 L 143.332031 175 L 143.332031 175.332031 L 117.5 175.167969 L 114.832031 172.332031 L 113.667969 171 L 112 169.167969 L 110.832031 167.832031 L 109 165.832031 L 107.5 164.167969 L 105.832031 162.332031 L 104.667969 161 L 103.167969 159.332031 L 101.167969 157.167969 L 100 155.832031 L 99.332031 156 L 97.167969 157.832031 L 94.832031 159.667969 L 92.5 161.667969 L 90.167969 163.5 L 88 165.332031 L 84.332031 168.332031 L 82.167969 170.167969 L 80.5 171.5 L 76.832031 174.5 L 75.832031 175.167969 L 55.667969 175.167969 L 56 173.5 L 59.5 160.332031 L 65.332031 138.332031 L 69.667969 122 L 72.167969 112.667969 Z M 72.667969 111 "/>
</g>
</svg>
