<?xml version="1.0" encoding="UTF-8"?>
<svg version="1.1" viewBox="0 0 2048 866" width="80" height="80" xmlns="http://www.w3.org/2000/svg" >
<path transform="translate(0)" d="m0 0h2048v866h-2048z" fill="#ebebeb"/>
<path transform="translate(120,1)" d="m0 0h2v2l4 2 15 14 16 15 9 9 8 7 13 13 8 7 9 9 8 7 17 16 7 7 8 7 14 14 8 7 10 10 8 7 5-5 12-11 16-15 7-7 8-7 11-11 8-7 10-10 8-7 14-14 8-7 12-12 8-7 17-16 10-9 10-8 2 3 3 17 66 264 20 79 16 64 8 31 2 9-1 1h-47l-5-2-4-15-38-152-17-67-16-64-15-61-2-12-6 3-9 9-8 7-13 13-8 7-17 17-8 7-7 7-8 7-15 15-8 7-11 11-8 7-7 7-4 1-7-7-8-7-10-10-8-7-11-11-8-7-9-9-8-7-13-13-8-7-16-16-8-7-17-17-3-1-1 8-8 30-49 196-17 67-16 64-3 8-2 1h-37l-12-1 4-17 12-49 25-99 70-280z" fill="#044EA8"/>
<path transform="translate(164,140)" d="m0 0 7 6 8 7 17 16 8 8 8 7 16 16 8 7 9 9 8 7 11 11 8 7 10 10 3 1 16-16 8-7 7-7 8-7 16-15 8-8 8-7 16-16 8-7 14-14 8-7 3 3 7 27 16 64 19 75 36 144 4 13v2l-13 1h-18l-22-1-16-64-21-83-20-81-1-5-5 3-12 12-8 7-49 46-13 12-5 4-8-7-11-11-8-7-15-14-19-19-8-7-16-15-7-4-3 15-21 83-33 132-3 3h-41l-9-1 4-17 31-124 18-71 21-85 7-30z" fill="#044EA8"/>
<path transform="translate(1255,494)" d="m0 0 4 1 3 8 16 55 15 52 3 9 3-7 20-69 12-42 2-5 1-1h57l2 6 9 62 12 81 6 37 2 17 1 7h-55l-2-2-9-65-6-51h-2l-3 12-19 66-10 34-2 5-3 1h-33l-2-1-7-25-10-34-15-52-3-6-2 14-12 96-2 7-2 1h-54l2-16 13-88 10-68 5-35 1-3z" fill="#044EA8"/>
<path transform="translate(882)" d="m0 0h30l2 1 41 5 24 4 28 7 26 9 26 11 24 12 24 14 19 13 10 8-2 4-17 10-17 11-7 4h-5l-10-8-21-12-15-8-19-8-20-7-24-7-29-6-23-3-13-1h-31l-39 3-31 6-30 9-27 11-19 9-21 12-18 12-17 13-11 9-15 14-7 7-7 8-11 13-14 19-13 21-13 24-10 23-11 33-6 24-2 16-3-3-7-25-15-60-1-9 7-17 13-25 12-20 12-17 11-14 9-11 18-20 16-16 8-7 16-13 20-14 17-11 18-10 15-8 28-12 25-9 27-7 31-6 31-3 13-1z" fill="#044EA8"/>
<path transform="translate(442,495)" d="m0 0h51l6 16 11 33 12 27 13 25 12 19 15 22 14 18 12 14 27 27 8 7 14 12 20 15 20 13 18 10 19 10 25 11 30 11 25 7 29 6 26 4 23 2 22 1 1 1v50h-12l-30-2-42-6-31-7-31-9-27-10-27-12-30-15-24-15-17-12-16-12-13-11-11-9-17-16-9-9-7-8-11-12-9-11-16-21-12-18-9-15-13-23-12-25-11-28-11-33-5-18z" fill="#044EA8"/>
<path transform="translate(988,495)" d="m0 0h158l1 63v106l-1 41h-57l-1-159h-42v103l-3 14-5 12-8 11-8 7-12 7-15 5-14 2h-26l-8-2-1-1-1-50 9 2h11l10-4 5-4 4-8 3-16z" fill="#044EA8"/>
<path transform="translate(120)" d="m0 0h329l-5 5-13 12-8 7-15 14-13 12-10 10-8 7-14 14-8 7-10 10-8 7-11 11-8 7-10 10-8 7-12 12-4 3-6-5v-2l-4-2-14-14-8-7-14-14-8-7-10-10-8-7-34-32-10-10-8-7-12-12-8-7-8-8-10-8v-2z" fill="#FEFDFD"/>
<path transform="translate(526,495)" d="m0 0h46l4 9 10 26 12 24 11 18 11 16 10 13 9 11 14 15 17 17 11 9 14 11 13 9 18 11 23 12 26 11 29 9 25 6 26 4 39 3 1 1v50h-15l-28-2-28-4-28-6-29-9-25-10-29-14-23-13-12-8-23-16-11-10-11-9-11-10-7-8-14-14-9-11-14-18-12-18-13-22-10-19-12-28-11-32v-3z" fill="#044EA8"/>
<path transform="translate(208,280)" d="m0 0 4 2 7 8 9 9 8 7 14 13-2 9-15 59-4 15 5-3 17-17 8-7 9-9 8-7 11-11 8-7 10-10 8-7 12-12 8-7 15-15 8-7 3-3h2l4 15 7 27 3 9-1 4-15 14-10 9-15 15-8 7-4 4 1 4 13 13 8 7 9 9 8 7 11 11 8 7 10 10 8 7 10 9v1h-70l-11-9-14-14-8-7-17-16-5-2-17 16-10 9-12 11-7 7-5 4-3 1h-59l-10-1 20-80 20-79 7-28z" fill="#044EA8"/>
<path transform="translate(1496,489)" d="m0 0h23l18 3 15 5 15 8 12 11 7 11 5 14v14l-4 12-4 8-8 10-9 7-7 4 4 3 13 7 9 9 6 10 4 12v19l-4 12-7 12-6 7-14 10-18 8-16 4-7 1h-26l-15-2-12-4-16-8-14-9-10-7 1-5 12-19 8-13 4-1 17 12 17 7 9 2h12l9-2 9-6 4-5 2-4v-10l-5-8-6-4-14-4-41-1-1-40 1-1 41-1 9-2 8-5 5-8v-12l-4-6-5-4-8-3-5-1h-15l-16 4-16 8-3-1-17-34-1-4 9-6 19-8 19-5z" fill="#044EA8"/>
<path transform="translate(1163,110)" d="m0 0 5 1 22 24 9 11 10 13 14 21 9 15 10 18 12 25 10 26 9 29 6 28 4 26 2 25v36l-2 27-5 28-2 6h-43l-8-1 5-26 3-24 1-16v-27l-3-31-4-22-6-25-10-30-9-21-10-20-14-23-12-16-11-14-9-10-7-8-11-10 2-4 24-24z" fill="#044EA8"/>
<path transform="translate(711,364)" d="m0 0 9 2 29 15 4 5 1 8-1 2-6-1-11-4-8-2-7 1-12 6-10 6-13 5-1 3 13-1 11-4 13-6 9-1 16 5 5 3 4 5 3 8v7l-11-2-10-2h-9l-12 5-15 11-14 7-2 2h8l12-4 14-8 9-5 10-1 15 4 6 3 4 5 2 7-3 2-15 2-10 6-2 3 10-1 6-2 16-2 4 7 1 5-1 1h-43l-14-2-8-2-24-2-9-3-17-8h-10l-14 7h-2l2-5 7-7 16-8 12-4 4-4-1-6-6-11-3-6 1-9 3-6 20-8 10-9 7-8z" fill="#044EA9"/>
<path transform="translate(919,221)" d="m0 0h2l-2 5-13 14-13 17-10 15-8 15-6 17-2 13v32l2 18 5 20 8 20 9 16 10 14 9 11 6 7 3 1 73 1-4-6-11-13-13-18-13-20-10-18-8-19-6-20-2-11v-15l2-14h4l2 27 4 15 5 13 12 23 13 19 16 21 9 11 9 10 9 11 15 15-1 1h-95l-20-1-9-10-12-17-12-21-10-21-7-23-4-22-1-10v-22l4-20 5-14 8-16 6-11 9-11 9-10 10-9 10-8z" fill="#0450AC"/>
<path transform="translate(957,148)" d="m0 0h10l1 3-6 9-29 4-25 6-21 7-25 12-12 8-13 10-13 12-7 7-11 14-10 16-8 16-6 18-4 17-3 21v34l3 27 7 30 8 26 8 18 2 3v3h-8l-7-1-5-7-8-20-9-33-4-26-1-10v-37l5-32 7-26 7-18 10-19 8-12 8-10 8-8 7-8 16-13 11-7 22-12 24-9 23-6 25-5z" fill="#044FAA"/>
<path transform="translate(734,290)" d="m0 0h11l10 4 1 1v7l-4 19-5 1-14-2h-21l-9 3-10 6-6 7-5 12-4 17 6-4 7-16 6-8 6-5 7-3 5-1h20l13 3 3 2v26l1 14-6-1-24-13-6-2-10 1-11 8-15 15-10 5-11 1-10-2-6-5v-2l13-2 7-5 4-8 2-7 1-19 3-12 6-10 8-5 19-5 22-13z" fill="#044FAA"/>
<path transform="translate(822,166)" d="m0 0h13l9 7-6 7-11 8-10 7-4-1-5-3-11-3h-13l-11 4-11 7-11 8-7 4h-9l-6-1 2 6 2 1h11l16-8 13-8 9-4 4-1h12l6 4 4 3-2 4-11 12-5 5-5-3-3-1h-14l-11 4-17 10-10 4h-8l-5-2-7-7-2-4v-8l8-28h3l8 8 8 3 10-4 6-7 7-10 7-6 9-4 4-1h10l9 3 13-1z" fill="#044FAA"/>
<path transform="translate(774,226)" d="m0 0 12 1-2 8-13 22-18-2h-16l-10 4-11 9-10 9-9 6-12 4h-2v4l15-2 4-3 9-5 13-10 12-6 6-2h15l10 3-1 6-5 12-2 3-5-1-9-3h-12l-10 4-19 13-12 4-7 1-7-2-6-5-6-12-4-10-5-6v-3l5 1 11 9 8 2 5-3 7-14 4-9 5-6 5-3 4-1h7l5 1h12l9-4 14-8z" fill="#044FAB"/>
<path transform="translate(835,112)" d="m0 0h13l10 4 8 7 11 11 11 4h14l3 2 2 9-13 5-13 4h-5l-13-13-6-8-6-5-6-2h-11l-10 4-10 7-12 3h-5l1 4h9l9-3 17-8 7-1 8 4 12 13 7 8-5 5-11 5-3-1-6-7-6-3h-14l-13 4-11 2-6-2-8-10-4-6-8-7-12-7 2-2 10 1 22 4 7-3 10-9 11-8 8-4z" fill="#044FAA"/>
<path transform="translate(869,80)" d="m0 0 13 1 6 4 8 18 7-1 17-5 6-1h17l12 3 16 8 11 9 8 9 2 5-5 4-6 2-6-8-8-9-10-7-11-5-9-3-3 1v2l16 8 11 10 7 12-2 4-7 1h-11l-8-16-6-7-7-3-11-1-10 2h-9l-11-7-4-4-3-1 3 10 5 5 7 2 22 1 8 3 5 3 7 10 1 4-15 4-8 1-5-13-3-3-24-2-6-5-4-8-1-11v-18l-2-5z" fill="#044FAB"/>
<path transform="translate(1167,805)" d="m0 0h21l4 2v47l-1 2-3 1h-7l-3-2-1-8v-29h-9l-1 1v23l-3 8-4 5-5 2h-18l-10-1-4-8h-16l-3 7-2 1h-12l-1-2 12-36 4-11 1-1h16l4 6 9 29 3 8 4 6h2l2-7 4-4 2-1 1-36 1-1z" fill="#044FAB"/>
<path transform="translate(1051,158)" d="m0 0h3l1 17v14l-5 9 9 16 3 7 1 22 4 8 14 18 10 15 15 28 10 16 4 8v5l-9 14-11 13-5 4-4-1-14-11-16-13-1-3 2-4 5-1 20 18 5 3 4-1 5-5 8-10v-10l-12-20-8-16-8-14-10-14-12-16-5-7-1-18-2-9-6-11-12-14-10-10-12-9 4-4 4-1 3 2 6-1 20-13z" fill="#044FAB"/>
<path transform="translate(2019,805)" d="m0 0h11l9 1 2 37 3 2 1 21h-53l1-16 2-7 3-3 3-19 1-14 1-1z" fill="#044EA9"/>
<path transform="translate(1959,804)" d="m0 0 11 1 6 4 7 8 3 8v14l-3 6-7 8-8 4-8 1-9-2-8-5-7-8-2-7v-12l4-10 5-6 8-3z" fill="#044FAA"/>
<path transform="translate(1174,729)" d="m0 0h26l6 3 4 5v8l-3 4v5l4 5 1 2v11l-4 5-5 2-8 1h-12l-10-1-1-1v-48z" fill="#044FAA"/>
<path transform="translate(960,805)" d="m0 0 6 1 4 8 5 19 1 1 4-10 5-16 5-3 8 1 2 3 5 37v9h-11l-1-1-2-17-2-7-6 16-2 8-6 1-3-2-8-23-1-1-2 10-1 15-9 1-5-1 5-33 2-13 2-2z" fill="#044FAB"/>
<path transform="translate(1900,805)" d="m0 0 15 1 5 4 3 7-1 7-1 1 1 7 4 8-1 7-6 7-5 2-13 1-10-1-4-4-2-11v-33l4-2z" fill="#044FAB"/>
<path transform="translate(1481,729)" d="m0 0 7 2 1 2v24l5-4 6-11 8-11 8-2 5 1 1 8v41l-1 1h-9l-4-2-1-26-5 5-9 16-5 6-3 1h-9l-1-1v-48z" fill="#044FAA"/>
<path transform="translate(957,730)" d="m0 0h37l1 2v48l-1 1h-11l-3-3-1-35-2-1h-6l-1 23-2 10-8 5-10 1-4-1-1-6 4-4 6-3 1-35z" fill="#044FAA"/>
<path transform="translate(1421,729)" d="m0 0 9 1 1 26 1 2 5-8 8-12 7-8h11l1 50h-13l-1-1v-26l-3 1-16 24-2 2h-11l-1-7v-42z" fill="#044FAB"/>
<path transform="translate(1397,806)" d="m0 0h10l1 9v13l1 6 12-17 7-10 4-1h8l1 1 1 24v24l-2 2-10-1-1-1v-17l1-11-4 2-9 14-7 11-3 2h-12v-45z" fill="#044FAA"/>
<path transform="translate(1701,806)" d="m0 0h11l1 3 1 21 1 3 6-8 9-14 4-4 3-1h9l1 38-1 13-11-1-1-1-1-28-1-1-7 11-10 17-3 2h-10l-2-7v-42z" fill="#044FAB"/>
<path transform="translate(1167,805)" d="m0 0h21l4 2v47l-1 2-3 1h-7l-3-2-1-8v-29h-9l-1 1v23l-3 8-4 5-2 1h-12v-8l4-4 2-1 1-36 1-1z" fill="#044FAA"/>
<path transform="translate(1222,805)" d="m0 0h21l3 2 1 10v38l-1 2h-8l-4-1-1-2v-36h-8l-2 1-1 25-4 8-3 3-8 2h-6l-2-6 2-6 7-2 1-36 1-1z" fill="#044FAB"/>
<path transform="translate(1681,805)" d="m0 0 5 1 1 17v25l-1 9-11-1-1-2v-28l-5 5-7 13-8 11-1 1h-9l-1-1-1-7v-28l1-13 1-1h9l1 4v24h2l2-4 10-15 7-8z" fill="#044FAB"/>
<path transform="translate(1301,729)" d="m0 0 6 1 1 6-1 44h-10l-3-2-1-18h-16l-1 20h-12l-1-1v-48l2-1h10l1 1 1 16h16l1-15 1-2z" fill="#044FAA"/>
<path transform="translate(1846,806)" d="m0 0h12l4 4 7 19 8 25-1 2h-10l-6-8-16-1-4 9h-10l-1-1v-7l12-35 4-6z" fill="#044FAA"/>
<path transform="translate(1312,805)" d="m0 0h24l6 3 4 5 2 7-1 8-5 8-7 3-11 1-1 16h-13l-1-1v-48z" fill="#044FAB"/>
<path transform="translate(1366,729)" d="m0 0h10l1 1v10l1 10 8-11 8-9 4-1h9l1 2-4 6-10 12-2 3 1 5 10 14 6 8v1h-11l-6-3-10-14-3-2v16l-2 3h-12l-1-27v-22z" fill="#044FAB"/>
<path transform="translate(1592,806)" d="m0 0h10l1 1v19l5-5 9-11 4-3 4-1h7v4l-7 8-6 7v7l8 13 8 10v2h-10l-7-3-11-14-3-2-1 17-2 2h-8l-2-1-1-18 1-31z" fill="#044FAB"/>
<path transform="translate(1010,730)" d="m0 0h9l1 5v14l5 1h10l6 3 4 5v11l-4 7-6 3-5 1h-21l-3-4-1-5v-13l1-27z" fill="#0450AC"/>
<path transform="translate(1126,729)" d="m0 0 8 1 1 1v19h15l9 4 3 7-1 9-3 5-6 4-5 1h-22l-3-3v-46z" fill="#044FAB"/>
<path transform="translate(947,208)" d="m0 0h3l-3 9-8 16-5 13-1 4v15l7 12 13 16 11 12 10 5 3 1h10l12-2 4 1-1 3-11 3-7 4-15 1-11-8-15-15-11-14-7-11-3-7v-13l5-13 11-20z" fill="#0450AC"/>
<path transform="translate(1456,805)" d="m0 0 9 1 1 18 5 1 6-1 2-17 1-1h12l1 1v31l-1 18h-14l-1-18-16-2-6-3-3-5v-22z" fill="#044FAA"/>
<path transform="translate(1508,805)" d="m0 0h19l6 2 1 7-2 4-11-1h-3v8h13l1 3v7l-12 1-1 1v6l7 1h6l2 2-1 9-1 1h-28v-49z" fill="#044FAB"/>
<path transform="translate(1018,805)" d="m0 0h22l4 2v9l-2 2-13-1-1 1v6l5 2h9l1 1v7l-5 2h-8l-2 4 2 4h12l2 2v8l-1 3h-23l-5-1-1-14v-33z" fill="#0450AC"/>
<path transform="translate(1224,729)" d="m0 0h27l1 1v10l-1 1h-14l-1 6 1 2 14 1v7l-1 1-12 1-1 7 5 2h9l1 1v10l-1 1h-27l-2-3v-34l1-13z" fill="#044FAA"/>
<path transform="translate(1341,728)" d="m0 0 10 1 3 3 3 7 1 6-5-2-8-2-8 1-5 5-1 2v11l4 6 5 3 6 1 12-5-3 12-4 4-10 1-8-2-8-6-6-7-2-5v-15l3-7 5-6 6-4z" fill="#044FAB"/>
<path transform="translate(1561,805)" d="m0 0h11l6 2 3 6v7l-8-2h-11l-5 5-1 3v10l4 6 6 3 8-1 6-2 1 1v8l-3 6-6 1h-8l-9-3-8-7-4-6v-22l5-8 6-5z" fill="#0450AB"/>
<path transform="translate(1796,805)" d="m0 0h13l6 3 4 7 1 7-4 4v6l4 4 1 6-4 9-6 5-3 1h-12l-9-4-3-2 1-7 3-2 7 4 7 1 5-3v-5l-3-2-12-1-2-2v-6l3-2 14-1v-7l-5-3-13 1-4-4 1-4 4-2z" fill="#0450AB"/>
<path transform="translate(1042,121)" d="m0 0 3 3-1 4-6 9-9 11-14 15-6 5-6 7-4 1-2-2 9-14 10-10 5-7 1-4-12 3-24 11-13 11-5 1 1-5 8-9 11-9 17-8 32-11z" fill="#0451AD"/>
<path transform="translate(1090,729)" d="m0 0h18l4 5 2 10-5-1-7-2-9 1-5 6-1 2v7l3 8 7 4 5 1 8-4h3l-1 10-3 4-3 1h-13l-7-3-8-7-4-8v-16l3-8 5-5z" fill="#044FAB"/>
<path transform="translate(1261,805)" d="m0 0 7 1 3 5 6 15 4-5 5-13 3-2h12l-3 10-10 23-8 16-5 2-8-1-1-2 4-7 1-7-8-16-8-14v-3z" fill="#044FAA"/>
<path transform="translate(926,96)" d="m0 0h17l12 3 16 8 11 9 8 9 2 5-5 4-6 2-6-8-8-9-10-7-11-5-17-6-2 1v3l-1 2 7 1-1 4h-18l-9-2-3-2v-5l7-3z" fill="#0450AB"/>
<path transform="translate(1054,806)" d="m0 0h30l3 2v7l-3 3h-6l-1 1-2 37h-11l-2-3-1-34-9-3-1-7z" fill="#044FAB"/>
<path transform="translate(1360,806)" d="m0 0h26l2 3v7l-1 1-14 1-1 2v33l-1 3h-13l-1-3 1-46z" fill="#044FAB"/>
<path transform="translate(927,100)" d="m0 0 9 2-3 4 17 9 11 10 7 12-2 4-7 1h-11l-8-16-6-7-7-3-11-1-10 2h-9l-4-3 5-2 1-3-2-5 5-1 1 5 5 2 9 1 15 1v-3l-6-2 1-4z" fill="#055FC9"/>
<path transform="translate(994,322)" d="m0 0 5 1 8 8 19 10 16 7 9 6 8 8 7 10 4 2 4-1 6-1 2 2-1 4-6 4-7 1-7-4-7-9-5-7-9-6-33-16-10-9-3-4-1-5z" fill="#0452AF"/>
<path transform="translate(1954,816)" d="m0 0h12l5 4 3 8v7l-3 6-6 5-2 1h-6l-6-4-3-4-2-7 1-9 5-6z" fill="#FEFDFD"/>
<path transform="translate(1051,730)" d="m0 0h12l1 2v48h-10l-3-3-1-9v-33z" fill="#044FAA"/>
<path transform="translate(1079,139)" d="m0 0h3v22l-3 9-12 11-4 1-1-2-1-14v-11l3-5 11-9z" fill="#044FAA"/>
<path transform="translate(1107,118)" d="m0 0h4l1 10v9l-4 6-7 7-9 5h-2l-1-3v-10l2-11 4-5 9-7z" fill="#044EA9"/>
<path transform="translate(837,136)" d="m0 0 6 1 8 6 9 10 7 8-5 5-9 4h-2l3-10-1-7-5-4-3-1-13-1-10 4-4-1-8-1v2l-9 2-4-1-3-2 2-6 2 4h9l9-3 17-8z" fill="#0660CA"/>
<path transform="translate(1480,806)" d="m0 0h12l1 1v31l-1 18h-7l2-11-2-6-5-4-1-10-2-1 2-17z" fill="#0660CA"/>
<path transform="translate(855,115)" d="m0 0 6 3 16 16 11 4h14l3 2 2 9-7 3-3-1-1-3-5-3v-2l-9-1-10-2-2-2v-3l-5-1v2l-9-1-2-5 1-2z" fill="#055FC9"/>
<path transform="translate(765,456)" d="m0 0 4 1 4 9-1 3h-43l-9-1v-1l8-1 6-5h8l10-3z" fill="#055EC6"/>
<path transform="translate(1008,223)" d="m0 0h12l11 3 5 4 2 5-10 2-1 10-5-3-7-8-12-8-3-4z" fill="#044FAB"/>
<path transform="translate(1137,99)" d="m0 0 2 1v10l-3 8-9 9-6 3-3-1v-11l4-11 11-7z" fill="#055EC7"/>
<path transform="translate(994,732)" d="m0 0h1v48l-1 1h-11l-3-3v-33h1l1 19 1 7 2-1 4-17 1-3 4-1v-5h-2l-1-5h-2l-1-4z" fill="#055FC9"/>
<path transform="translate(944,113)" d="m0 0 4 1 10 8 7 9 3 6-2 4-7 1h-11l-2-4 1-11 1-7-3-5z" fill="#0450AC"/>
<path transform="translate(726,370)" d="m0 0 5 2 19 10 3 4 1 8-1 2-6-1-11-4-8-2-10 1 3-3 7-3 3-3 2-1-1-3-6-3-2-3z" fill="#055FC9"/>
<path transform="translate(2e3 854)" d="m0 0h17l10 1 2 5v6h-31l1-11z" fill="#FEFDFD"/>
<path transform="translate(2015,817)" d="m0 0h8l2 2v25l-3 1h-9l-1-1 1-15 1-11z" fill="#FEFDFD"/>
<path transform="translate(1045,268)" d="m0 0 6 2 11 9 9 12 8 17v4l-4-2-13-21-11-12z" fill="#055FC8"/>
<path transform="translate(1051,158)" d="m0 0h3l1 17v14l-1 2h-3l-2-4-2-14-2-4 4-6h-2l-2 5-5 2h-3v-4l11-7z" fill="#0660CA"/>
<path transform="translate(1157,83)" d="m0 0h7v5l-7 11-8 7-4 1v-13l6-7z" fill="#0450AD"/>
<path transform="translate(716,313)" d="m0 0h13l14 2h7l2 3-1 4-18-2h-21l-9 3-4 1v-2l12-7z" fill="#0660CA"/>
<path transform="translate(1107,118)" d="m0 0h4l1 10v9l-2 2-1-5-4-4v-2h-2l-2-2-6 6h-2v10l1 12-4 1-1-3v-10l2-11 4-5 9-7z" fill="#055EC7"/>
<path transform="translate(766,393)" d="m0 0 2 4 3 15 6 21 9 25 4 8-3 1-5-9-6-14-9-32-2-10v-8z" fill="#0660CA"/>
<path transform="translate(957,148)" d="m0 0h10v1l-16 2-3 2-26 4-12 2-8 4-10 1-11 4-18 8-3-1 17-8 27-9 33-7z" fill="#0660CA"/>
<path transform="translate(924,127)" d="m0 0 5 2 7 10 1 4-6 2h-5l-4-2-5-4 2-4z" fill="#055FC8"/>
<path transform="translate(1079,139)" d="m0 0h3v22h-1v-9l-12 1-6 3v10h-2v-11l3-5 11-9z" fill="#055EC6"/>
<path transform="translate(1485,718)" d="m0 0h9l7 1 4-1h8l-1 5-8 4h-8l-10-4-2-4z" fill="#055EC8"/>
<path transform="translate(2038,806)" d="m0 0h1l1 23v14l-4 2-3-5-2-7 1-10 2-3h3z" fill="#0660CA"/>
<path transform="translate(947,287)" d="m0 0 5 5 12 13 10 5 3 1h10l12-2 4 1-1 3-11 3-5 2-1-2-13-3-10-6-7-8-4-3v-3h-2z" fill="#055FC8"/>
<path transform="translate(882)" d="m0 0h30l2 1 18 2v1h-44l-29 1h-14v-1l37-3z" fill="#0660CA"/>
<path transform="translate(1023,757)" d="m0 0 6 1 4 2 1 2v6l-4 3h-8l-3-3v-8z" fill="#FEFDFD"/>
<path transform="translate(1189,758)" d="m0 0h9l3 4-1 7-10 2-5-3v-6z" fill="#FEFDFD"/>
<path transform="translate(919,221)" d="m0 0h2l-2 5-13 14-8 10-1-3 2-5-2-1 6-8 12-10z" fill="#055FC9"/>
<path transform="translate(1113,819)" d="m0 0 3 1 5 10 1 6-3 2-12-1z" fill="#FEFDFD"/>
<path transform="translate(1907,834)" d="m0 0 6 2 1 7-3 3-2 1h-8l-3-3v-5l4-4z" fill="#FEFDFD"/>
<path transform="translate(1138,758)" d="m0 0h7l5 4-1 6-6 3-7-1-2-3 1-6z" fill="#FEFDFD"/>
<path transform="translate(1711,794)" d="m0 0 26 1v4l-3 2h-18l-6-2-1-3z" fill="#0452B0"/>
<path transform="translate(1189,738)" d="m0 0 7 1 4 4-1 5-2 2-8 1-4-2v-8z" fill="#FEFDFD"/>
<path transform="translate(1901,814)" d="m0 0 9 1 2 3v8l-10 1-3-1-1-2v-7z" fill="#FEFDFD"/>
<path transform="translate(766,303)" d="m0 0h1v7l-3 19-1 12v22l3 19v10l-2 2-3-22v-37z" fill="#0660CA"/>
<path transform="translate(711,364)" d="m0 0 9 2v1l-12 2-6 5-4 6-9 7h-3l-1 3-3 3-5-1-3-2 12-5 10-9 7-8z" fill="#0660CA"/>
<path transform="translate(1512,821)" d="m0 0h4l1 5-1 5 4 2 2 2-3 2-2 4-1-2-6 2-1-8 1-10z" fill="#0660CA"/>
<path transform="translate(1326,816)" d="m0 0 7 1 3 4-1 6-6 3-5-1-1-2v-8z" fill="#FEFDFD"/>
<path transform="translate(765,456)" d="m0 0 4 1 4 9v2h-9l-9-1 1-6z" fill="#044FAA"/>
<path transform="translate(1517,824)" d="m0 0 9 1h5l1 3v7h-10l-6-4-1-3z" fill="#044FAA"/>
<path transform="translate(1850,823)" d="m0 0h4l4 9-1 5-7 1-5-2 4-12z" fill="#FEFDFD"/>
<path transform="translate(1178,70)" d="m0 0 6 1-6 9-5 6-4 1-1-8 8-8z" fill="#0453B3"/>
<path transform="translate(1093,328)" d="m0 0 5 1 3 3 2 7-1 5-3-1-2-4-7-3-1-5z" fill="#0660CA"/>
<path transform="translate(962,157)" d="m0 0v3l-29 4-25 6-16 5-3-1 24-8 17-4 9-2 19-2z" fill="#0660CA"/>
<path transform="translate(786,196)" d="m0 0h12l-4 1 1 5-4 1v-2h-2l-1 2h-2l-7 2-5-1-1-3 9-4z" fill="#055FC9"/>
<path transform="translate(717,188)" d="m0 0 7 6 5 4 5 2-1 3-5 1-5-5-9 1 1-8z" fill="#0660CA"/>
<path transform="translate(878,105)" d="m0 0h1l3 10 5 5 7 2 22 1 4 2-31 1-7-4-4-8z" fill="#0660CA"/>
<path transform="translate(1476,730)" d="m0 0h2v26l-1 19-2 4v-48z" fill="#0660CA"/>
<path transform="translate(756,434)" d="m0 0 5 3 4 6 1 5-3 2h-8l1-4-1-11z" fill="#055FC9"/>
<path transform="translate(928,302)" d="m0 0 3 1v17h-2l-2 4-1 8h-1v-15l2-14z" fill="#0660CA"/>
<path transform="translate(751,406)" d="m0 0 5 5 3 8v7l-11-2-3-2 8-4-1-7z" fill="#055FC8"/>
<path transform="translate(1178,835)" d="m0 0h1v10h2l1 5 7 1 2 5-3 1h-7l-3-2-1-8z" fill="#055FC9"/>
<path transform="translate(1480,806)" d="m0 0h12v2h-4l-3 12-4 2-2-15z" fill="#044EA9"/>
<path transform="translate(1033,228)" d="m0 0 5 5v2l-10 2-1 3v-2h-6l2-7 9 1z" fill="#0660CA"/>
<path transform="translate(678,461)" d="m0 0h23l12 2 7 3v1l-8-1-5-1-24-2-5-1z" fill="#0660CA"/>
<path transform="translate(796,181)" d="m0 0h5l4 7-4 1-4-1h-17l2-2 12-3z" fill="#0660CA"/>
<path transform="translate(1e3 163)" d="m0 0 1 2 7-1-6 8-5 4-4-2z" fill="#0660CA"/>
<path transform="translate(1017,171)" d="m0 0 9 3-2 4-7 2-6-4 4-4z" fill="#0456B8"/>
<path transform="translate(1157,83)" d="m0 0h7v5l-3 5h-2v-6l-4 2-5 4-3-1 4-5z" fill="#055EC7"/>
<path transform="translate(657,267)" d="m0 0 5 1 8 7-1 2h-2l-1 3h-2l-6-9z" fill="#055FC9"/>
<path transform="translate(1521,738)" d="m0 0h1v41l-1 1h-9v-1l8-2v-15z" fill="#0660CA"/>
<path transform="translate(1199,58)" d="m0 0 3 1-9 9-5 3-3-1 6-8z" fill="#055DC4"/>
<path transform="translate(723,433)" d="m0 0 2 1-3 6-5 3-6 2-5-1 4-3z" fill="#0660CA"/>
<path transform="translate(670,391)" d="m0 0 3 1-5 5-1 2-1 12-2 2-2-5 1-9 3-6z" fill="#055FC9"/>
<path transform="translate(823,200)" d="m0 0 1 3-15 15-9 11-3 2 2-4 7-9 8-8 7-8z" fill="#0660CA"/>
<path transform="translate(762,132)" d="m0 0 10 1 10 2v1h-9v2l-5 1-8-5z" fill="#055FC9"/>
<path transform="translate(1485,718)" d="m0 0h9l2 4-1 3-7-1-4-3z" fill="#0451AE"/>
<path transform="translate(1091,134)" d="m0 0h1l2 20-4 1-1-3v-10l1-7z" fill="#0660CA"/>
<path transform="translate(813,169)" d="m0 0h4v5l-6 1-5 1-1-3h-6v-1z" fill="#0660CA"/>
<path transform="translate(750,359)" d="m0 0h1l1 14-6-1-3-3 5-6h2z" fill="#055FC9"/>
<path transform="translate(1008,223)" d="m0 0h12l5 1-4 3-3-2h-9l-1 3-4 1-4-5z" fill="#0660CA"/>
<path transform="translate(1462,768)" d="m0 0h1l1 12h-13l4-2v-2l5-3h2z" fill="#0660CA"/>
<path transform="translate(559,323)" d="m0 0 3 1-1 15-3-3-2-9 1-3z" fill="#055EC6"/>
<path transform="translate(1483,734)" d="m0 0 4 1v7l-1 2-4-1-2-1v-5z" fill="#0660CA"/>
<path transform="translate(994,732)" d="m0 0h1v16l-1-4h-2l-1-5h-2l-1-4z" fill="#0660CA"/>
<path transform="translate(1149,122)" d="m0 0v3l-11 11-8 10-2-1 2-4z" fill="#055DC4"/>
<path transform="translate(1505,718)" d="m0 0h8l-1 5h-11v-4z" fill="#0450AD"/>
<path transform="translate(727,398)" d="m0 0h4v2l-6 2-13 4-4 2-1-2 12-6z" fill="#0660CA"/>
<path transform="translate(1675,816)" d="m0 0h1l-1 38h-1v-28h-2l2-9z" fill="#0660CA"/>
<path transform="translate(1053,224)" d="m0 0 2 3 2 14v9l-3-3z" fill="#0660CA"/>
<path transform="translate(742,379)" d="m0 0 5 1 3 2v2l-3 1h-7l-1-5z" fill="#044FAA"/>
<path transform="translate(701,333)" d="m0 0 2 1-7 8-3 6-3 7-2-3 6-12z" fill="#055CC3"/>
<path transform="translate(947,208)" d="m0 0h3l-3 9-3 4v-2h-2l-1-3z" fill="#0660CA"/>
<path transform="translate(927,100)" d="m0 0 9 2-3 4v3l-7-2 1-4z" fill="#0660CA"/>
<path transform="translate(990,818)" d="m0 0h2l1 5-1 7v7h-1l-2-7-2 2 2-10z" fill="#0660CA"/>
<path transform="translate(1533,846)" d="m0 0h1l-1 9-1 1h-6l2-6z" fill="#0660CA"/>
<path transform="translate(1182,752)" d="m0 0 5 2 2 5-3 3-4-2z" fill="#0660CA"/>
<path transform="translate(762,208)" d="m0 0 1 3-8 5-7 2-4-1 16-8z" fill="#0660CA"/>
<path transform="translate(1745,827)" d="m0 0h1l1 17-1 13h-6l4-4z" fill="#0660CA"/>
<path transform="translate(715,300)" d="m0 0 2 1v2l-5 3-1 2h-11l3-2z" fill="#0660CA"/>
<path transform="translate(778,168)" d="m0 0h10l4 3h-21l3-2z" fill="#0660CA"/>
<path transform="translate(1712,809)" d="m0 0h1l1 21 1 6-4-1z" fill="#0660CA"/>
<path transform="translate(989,432)" d="m0 0 8 6 2 3v3l-4-2-6-7z" fill="#0660CA"/>
<path transform="translate(688,356)" d="m0 0 1 2-5 7-5 3h-2v-7l1 4 6-4 2-4z" fill="#055FC9"/>
<path transform="translate(1251,776)" d="m0 0 1 3-1 1h-27v-1l22-1z" fill="#0660CA"/>
<path transform="translate(1124,106)" d="m0 0 2 1-1 2h2v5l-3 1-3-3 1-5z" fill="#044FAA"/>
<path transform="translate(651,626)" d="m0 0 7 6 7 7-2 1-8-6-4-6z" fill="#0660CA"/>
<path transform="translate(775,272)" d="m0 0 2 1-2 10-3 4-1-4z" fill="#0660CA"/>
<path transform="translate(896,435)" d="m0 0 5 2 5 6-1 2-5-3-4-5z" fill="#055FC9"/>
<path transform="translate(1014,131)" d="m0 0h3v2l-10 4-4-1 2-2z" fill="#0660CA"/>
<path transform="translate(1507,749)" d="m0 0h2v29h-1l-1-26z" fill="#0660CA"/>
<path transform="translate(642,446)" d="m0 0m-2 1 2 1-6 7 2 2-7 2 2-5z" fill="#055ABF"/>
<path transform="translate(869,80)" d="m0 0h7l-2 6h-2l-1 2-2-5z" fill="#0660CA"/>
<path transform="translate(1478,838)" d="m0 0h1l2 13v2h-2v2l4 1h-5z" fill="#0660CA"/>
<path transform="translate(2e3 821)" d="m0 0 2 3v11l-3 1z" fill="#0660CA"/>
<path transform="translate(684,447)" d="m0 0h14l-3 2-6 2h-5z" fill="#0660CA"/>
<path transform="translate(1063,761)" d="m0 0h1v19h-10v-1l7-1 1-1z" fill="#0660CA"/>
<path transform="translate(774,226)" d="m0 0 12 1-2 3-14-2z" fill="#0660CA"/>
<path transform="translate(1016,751)" d="m0 0h3v2h2l-1 5-5-1z" fill="#0660CA"/>
<path transform="translate(685,405)" d="m0 0 3 1-2 1-1 3h11l-4 2-9-1-2-2z" fill="#0660CA"/>
<path transform="translate(1897,830)" d="m0 0 4 1 1 5-3 2-2-3z" fill="#0660CA"/>
<path transform="translate(1378,774)" d="m0 0 1 3-2 3h-12v-1l8-2 5-1z" fill="#0660CA"/>
<path transform="translate(710,282)" d="m0 0 2 2-12 6-2-1 4-3z" fill="#0660CA"/>
<path transform="translate(734,429)" d="m0 0h5l-2 3-12 1 4-3z" fill="#0660CA"/>
<path transform="translate(898,237)" d="m0 0h2l-2 4-8 7-2 1 2-4z" fill="#0455B5"/>
</svg>
