<?xml version="1.0" encoding="UTF-8"?>
<svg version="1.1" viewBox="0 0 2048 652" width="100" height="100" xmlns="http://www.w3.org/2000/svg" style="background-color:#ebebeb" >


<path transform="translate(239,208)" d="m0 0h148l10 2 8 7 5 10 1 7-4 10-9 10-2 1-19 1h-92l-18 1-12 3-11 6-10 9-6 9-5 12-2 10v28l4 17 8 16 7 8 13 9 11 4 5 1 133 1 5 21 6 14 9 14 9 10 8 7 13 8 13 6 16 5 7 1 143 1h46l-4 6-10 12-9 11-13 13-8 7-12 10-19 13-15 9-19 10-25 10-24 7-25 5-26 3h-37l-22-2-25-5-20-6-22-8-27-13-18-11-11-8-10-8-13-11-23-23-11-14-10-14-11-18-10-19-10-24-20-9-18-8-6-4v-1h49v-126l1-11 5-13 9-13 9-8 14-7z" fill="#B2120D"/>
<path transform="translate(429,41)" d="m0 0h43l26 3 23 5 26 8 21 9 16 8 17 10 17 12 11 9 10 9 8 7 8 8 7 8 12 15 14 21 9 16 10 21 10 28 6 21v6l-230 1-15 3-16 6-15 9-13 11-9 9-9 14-8 15-5 12-1 1h-118l-5-2-6-7-3-6-1-11 3-10 6-8 5-3 121-1 13-2 11-6 13-10 9-10 5-8 5-15 2-16-1-14-4-15-7-14-8-10-10-9-15-8-9-3-5-1-177-1 2-5 9-11 12-14 11-11 11-9 12-10 17-12 19-11 16-8 14-6 27-9 22-5 20-3z" fill="#B2120D"/>
<path transform="translate(761,409)" d="m0 0h101l22 1 16 3 14 7 8 8 6 10 3 8 1 6v18l-3 10-4 8-7 9-10 8-10 4-7 1-1 1 13 8 8 8 10 15 14 27 12 21v2l-2 1h-64l-6-9-16-29-13-23-8-9-10-4-7-1v74l-8 1h-52l-1-108 1-1 85-1 12-2 10-5 4-6v-9l-4-8-6-4-8-1-93-1-1-1v-35z" fill="#D11414"/>
<path transform="translate(753,313)" d="m0 0h5v3l-15 10-5 5h-2l-2 4-5 9-4 12-2 1-10-6-8-2-21-2-155-1v46h139l20 1 6 4 4 6 1 5-3 9-4 6-3 2-154 1h-40l-9-1-14-8-10-9-8-12-1-5 58 1v-46h-55l1-5 7-10 8-8 7-5 9-3 32-1z" fill="#B3120D"/>
<path transform="translate(1e3 461)" d="m0 0h14l14 2 12 5 8 6 9 10 7 14 3 12 1 7v19l-3 16-5 13-9 12-8 7-12 6-12 3h-29l-12-3-11-6-9-8-7-11-5-12-3-16v-23l4-16 7-14 9-10 8-6 9-4 9-2zm0 18-12 3-10 7-7 11-3 9-2 12v15l3 14 5 10 9 9 9 5 11 2 13-1 10-4 10-9 6-12 2-9v-28l-3-11-5-9-4-5-9-6-12-3z" fill="#fff"/>
<path transform="translate(1280,461)" d="m0 0h17l13 2 10 4 9 6 6 5 9 14 5 15 1 6v28l-4 16-7 13-9 10-8 6-11 5-9 2-17 1-17-2-11-4-8-5-6-5-8-11-6-13-3-12-1-18 2-17 4-12 6-11 9-10 5-4 12-6 8-2zm2 18-9 2-10 6-6 7-5 10-3 12v24l3 12 6 10 10 9 10 4 13 1 11-2 8-4 8-7 6-12 2-9 1-9v-15l-3-15-6-11-9-8-9-4-5-1z" fill="#fff"/>
<path transform="translate(1141,461)" d="m0 0h18l12 2 10 4 9 7 7 10 3 6-1 3-15 5-5-1-8-10-8-5-9-2h-9l-10 3-9 6-6 10-4 13-1 7v18l3 14 5 10 3 3v2l4 2 8 5 10 2 12-1 11-4 4-3h2l2-5 1-2v-14l-2-3-7-1h-20l-1-1-1-13 2-2 22-1h27l1 1 1 19v22l-2 6-7 8-12 7-12 4-16 2-17-1-13-4-10-6-7-7-7-11-5-11-3-12v-29l4-16 8-16 11-11 12-6z" fill="#fff"/>
<path transform="translate(1404,461)" d="m0 0h20l12 3 9 6 8 9 4 8-1 4-15 4h-5l-7-11-7-5-3-1h-11l-8 5-4 6-1 7 2 7 7 6 12 5 23 8 9 6 7 7 5 11 1 10-2 12-5 10-8 8-10 5-7 2-9 1h-11l-14-2-12-6-8-9-7-13v-4l16-4 5 1 8 13 10 5 5 1h8l9-3 5-4 3-6v-10l-4-8-8-5-21-7-11-4-8-5-7-7-4-8-2-9v-10l4-12 9-10 9-5z" fill="#fff"/>
<path transform="translate(1695,463)" d="m0 0h71v17l-22 1h-25l-1 36h42l1 1v16h-43v40h51l1 1 1 15-1 1h-74l-1-1z" fill="#fff"/>
<path transform="translate(1595,463)" d="m0 0h69v17l-18 1h-29l-1 36h42l1 1v16h-43v41l11-1h40l2 5v11l-2 1h-72l-1-4v-114z" fill="#fff"/>
<path transform="translate(1472,463)" d="m0 0h99v17l-2 1-37 1v109l-2 1h-15l-5-2-1-108h-35l-2-2-1-16z" fill="#fff"/>
<path transform="translate(1797,463)" d="m0 0h21l2 1v110h50v16l-1 1h-72l-1-9v-118z" fill="#fff"/>
<path transform="translate(288,541)" d="m0 0 5 1 6 4 4 1 1 3 8 2h2v-2l-4-2-1-5 4-1 3 2 1 5 3 1 4-3 2 3h3l1-3 7 2 5 4 8 3 7 1 6 7v6l-6 1v6l-10-3-24-11-20-11-15-10z" fill="#D01313"/>
<path transform="translate(217,466)" d="m0 0 6 1 3 1 6-2h15l5 7-1 4 3 1-2 2-7-1-2-3-7 2-4-2h-9z" fill="#D01313"/>
<path transform="translate(325,553)" d="m0 0 7 1 8 4 6 8-2 4-4-1-11-7v-3l-6-1z" fill="#B2120D"/>
<path transform="translate(254,480)" d="m0 0 5 2 1 3 4 4 1 3-2 1-10-5v-6z" fill="#D11414"/>
</svg>
