<?xml version="1.0" encoding="UTF-8"?>
<svg version="1.1" viewBox="0 0 800 800" width="80" height="80" xmlns="http://www.w3.org/2000/svg" style="background-color: #ebebeb">
<path transform="translate(0)" d="m0 0h800v800h-800z" fill="#ebebeb"/>
<path transform="translate(390,148)" d="m0 0 13 1 31 6 16 5 24 9 11 6 11 7 11 9 11 12 7 11 5 12 1 2-1-10-8-27v-5l6 2 17 16 5 5 4 6 5 13 3 11v16l-2 10-7 16-6 9-8 8-7 8-13 13-6 4-5 5-10 9-10 8-11 8-15 13-7 7-8 7-8 9-5 4-8 13-3 7-2 12v8l4 15 7 14 8 10 9 10 12 10 17 13 3 2v2l-8 1-27-2-18-3-14-4-21-8-21-11-14-10-14-12-9-10-9-14-5-11-3-10-1-7v-11l2-15 4-13 10-21 8-13 10-14 8-9 7-8 9-9 5 1 5 4 8 4 18 5 12 2h7l11-3 10-5 5-4 8-10 5-12 2-9v-20l-4-17-5-13-6-12-11-14-15-13-16-11-13-8-6-4-5-5z" fill="#972923"/>
<path transform="translate(259,189)" d="m0 0h11l24 6 14 7 7 7 3 6v7l-3 9-8 10-12 11-9 7-12 12-10 13-7 14-4 15-2 12v22l4 23 7 19 8 17 5 17 1 8v18l-2 13-4 14-8 16-7 11-5 4h-28l-79-2-4-1 3-10 19-49 14-38 11-29 10-26 15-40 12-33 9-23 13-34 7-18 5-14z" fill="#212849"/>
<path transform="translate(307,87)" d="m0 0h12l12 4 10 6 8 8 6 12 2 11-1 13-4 12-8 11-9 8-11 5-5 1h-20l-11-4-9-7-8-10-4-7-2-8v-13l3-12 5-10 12-12 12-6z" fill="#972923"/>
<path transform="translate(612,101)" d="m0 0h16l13 4 9 7 7 8 5 10 2 10-1 12-5 13-10 12-14 7-5 1h-18l-11-4-10-7-7-8-5-11-1-7v-8l3-12 5-9 8-9 12-7z" fill="#B7ACA5"/>
<path transform="translate(265,530)" d="m0 0 6 1 6 4 2 6 7-1 2 1 15 1 1 4-1 1-12 1v2l3 3v4h-7l1 6 5 2 3 2 8 1 4 1 10-1h9l1 2-4 4-6 4-8 3-5 1-5-1h-3l1 8-1 2 5-2 4 1 5 4v2l-2 1-15 1-8-1h-38l-18 1-2 1h-6l1-5 2-3 5-2h7l-3-12-6 1-7 2-13-4-1-4 1-1 17-1 5-4 3-7 1-6-4-6 2-5 4-3 5 2h23v-10z" fill="#15192A"/>
<path transform="translate(371,534)" d="m0 0h4l1 2v7h14l4 4-4 1-24 1-1 4 22 1 1 4-1 1-12 1 1 5 14 1 1 4-2 2-15 1-1 9 6-1 7-3 1 3-4 5-4 4 8-2 5-8 2-7 1-8v-20l3-7 5-1 2 2 8 1h25l1-1 7 1 5 5-1 9v30l1 7v8l-6 4-5-2-3-5 1-7-6-2-8-7-4-2-8 7-8 3-2-1 2-4 8-6 4-4-1-6-8-9v-6l6 2 7 10 3-1 6-12h3l2 6-6 11-2 4 8 10 3 3v3h2l-1-2v-37l-9-1h-24l-2 32-4 9-5 5-6 3-8-1-3-5-4 2-8 5-6-2-1-4 5-10-1-8-14-1-2-1v-5l3-2h15v-4l-9-2-14-1-3-2v-3l19-8 8-6z" fill="#15192B"/>
<path transform="translate(149,531)" d="m0 0 7 2 1 1v7h17l5 2 1 1v14l-7 3-9-2-12-5 3 6 8 4 9 3 22 4 2 4-1 3-8 4-3 1-12-2-2-1v15l-5 3h-10l-14-1-3 2h-8l-1-1-1-13-1-7 1-4-8 2-6-1-3-4v-2l7-2 11-2 14-7 5-5 8-1 3-5h-9l-7-2 2 8-4 4-5 2-12 1-1-5 1-12 1-1 8-1h11l1-8z" fill="#161B2E"/>
<path transform="translate(408,142)" d="m0 0 10 1 30 5 18 6 21 9 17 10 12 10 11 1 9 8 7 4 9 10 4 10 2 6h2l4 19v11l-3 14-2 2 2-13v-16l-5-17-6-12-14-14-8-7-6-3 7 26 3 11v6l-3-3-5-12-8-12-12-13-11-8-15-9-14-6-22-8-33-7-19-3 3 5-1 2-5-6 1-4z" fill="#B7ACA5"/>
<path transform="translate(265,530)" d="m0 0 6 1 6 4 2 6 7-1 2 1 15 1 1 4-1 1-12 1v2l3 3v4h-7l1 6 5 2 3 2 8 1 4 1 10-1h9l1 2-4 4-6 4-8 3-5 1-5-1h-3l-1 3-4-2v-2l-3-1-6-7-2-3-7-1-6 2-2-1 1-4 3-2-1-4-4-9v-2h-11l-8 1-1 5 8 1-2 3-7 2-2 2-2 5-3 3h-5-3l1-4 3-7 1-6-4-6 2-5 4-3 5 2h23v-10z" fill="#202647"/>
<path transform="translate(501,535)" d="m0 0h7l2 2 1 7-1 4 16 1 1-5 3-1 5 2h11l15-2 6-2h8l1 1v6l-1 1-31 2-8 1-3 9-1-4-4 1-2-6-16 2v5l9 7v3l-3 2-5-3-1 2-2 17 9-3 2-2 7-1 1 6-8 5h-11v7l-3 2h-5l-1-1v-27l-4 2-10 8-6 3-7-1-4-4v-3l15-4 8-6 6-7 3-7-18 1-1-2 2-4 3-2 12-1 2-3v-7z" fill="#15192B"/>
<path transform="translate(612,101)" d="m0 0h16l13 4 9 7 7 8 5 10 2 10-1 12-5 13-10 12-14 7-5 1h-18l-11-4-10-7-7-8-5-11-1-7v-8l3-12 5-9 8-9 12-7zm3 6-10 3-10 6-8 11-3 9v14l3 9 6 9 9 7 11 4h12l12-3 9-6 6-7 4-11v-17l-4-11-9-10-8-5-7-2z" fill="#972923"/>
<path transform="translate(371,534)" d="m0 0h4l1 2v7h14l4 4-4 1-24 1-1 4 22 1 1 4-1 1-12 1 1 5 14 1 1 4-2 2-15 1-1 9 6-1 7-3 1 3-4 5-4 4 8-1-3 3h-2v3l6 1v1l-8-1-3-5-4 2-8 5-6-2-1-4 5-10-1-8-14-1-2-1v-5l3-2h15v-4l-9-2-14-1-3-2v-3l19-8 8-6z" fill="#161A2C"/>
<path transform="translate(451,200)" d="m0 0 5 5 4 7 6 13 5 17 1 6v20l-4 15-5 9-7 8-10 7-11 4-5 1h-7l-20-4-15-5-10-7-4 1-13 13-16 20-6 10-9 16-7 15-4 16-2 21h-1v-15l3-16 4-13 7-15h2l3-11 5-17 3-1v-2l5-5 5-3 2-3h3l2-4 4-1 1-4 9-6 11-1 13 5 19 5 18 2 13-2 10-9 6-14 2-11 2-6 1-4-1-14-5-19-3-5-4-10-5-7z" fill="#B7ACA5"/>
<path transform="translate(81,636)" d="m0 0h30l7 3 4 4v8l-5 5-4 2h-3l9 11 6 7-1 2-7-1-7-8-5-7v-2l-18-1v18l-4 1-4-1 1-34z" fill="#101322"/>
<path transform="translate(540,560)" d="m0 0 4 1v2l13 10 2 1 1-9-5-4 2-1h16l-2 9-5 9 12 7 12 5 5 3-1 4-5 4-2 1h-9l-8-6-11-10-2-1-2 4-8 5-10 3-9-1-3-2 1-6 2 1h7l12-3 5-4 1-3-7-6-8-4v-7h2z" fill="#0D0F19"/>
<path transform="translate(157,640)" d="m0 0h8l8 4 5 6 1 3v8l-3 6-7 6-3 1h-12l-6-3-6-7v-12l4-6 5-4z" fill="#B2B4B3"/>
<path transform="translate(611,119)" d="m0 0h15l8 4 2 4v9l-6 9 5 12 1 3v8l-4-1-6-16-2-3-11-1-1 20h-4l-1-2v-39l2-6z" fill="#962823"/>
<path transform="translate(104,533)" d="m0 0h7l1 2 1 13-2 7-1 12 2 8 6 7 3 1 1 3-3 3-6-3-7-6-7 8-7 5-5 1-8-3-4-2v-4l16-7 6-7 3-9 1-13v-12z" fill="#141829"/>
<path transform="translate(561,638)" d="m0 0h11l10 3 5 5 2 3-1 4-5-2-8-6-4-1h-10l-8 4-4 5-1 4v7l3 6 6 4 3 1h15l6-3 3-7h-12l-5-2 1-3 9-1h13l1 1v7l-2 7-6 5-6 2-10 1-14-3-10-7-4-5-2-8 2-7 5-6 9-6z" fill="#0F121F"/>
<path transform="translate(399,537)" d="m0 0 5 1 7 2h27l1-1 7 1 5 5-1 9-2 1-3-9-5-1v3l2 1-1 2h-2v-2l-10-1h-24l-2 32-4 9-5 5-3 2-9-1v-3l4-2 6-10 2-7 1-8v-20l3-7z" fill="#161A2C"/>
<path transform="translate(483,638)" d="m0 0 7 1 5 5 11 14 10 11 1-30 6-1 1 1v41h-6l-8-7-11-12-8-10-1-1-1 29-1 1h-6l-1-2v-32l1-7z" fill="#0E111D"/>
<path transform="translate(200,636)" d="m0 0 5 1 5 5 8 9 14 16 1-30 1-1h5l1 1v38l-1 3h-7l-9-10-8-10-9-11-2-1v32l-5 1-2-7 1-33z" fill="#101320"/>
<path transform="translate(411,547)" d="m0 0h18l9 2 1 7v32h-2l-3-5-8-9-1-4 6-9 2-6-1-4-3 1-6 12h-4l-7-10-5-2 2 7 7 8 1 6-8 8-6 4h-2l2-17 1-16 1-4z" fill="#B2B5B4"/>
<path transform="translate(272,636)" d="m0 0h15l9 4 5 6-1 4h-5l-4-6-4-2h-14l-8 4-4 6v11l3 5 8 5 9 1 13-4 2-7h-16l1-5 5-1h17l-1 14-4 4-11 4h-14l-9-3-7-6-4-10 1-10 4-6 8-6z" fill="#0F111E"/>
<path transform="translate(430,638)" d="m0 0h37l1 2-1 3h-32l1 12 30 1v5h-31v13l35 1v4l-29 1-12-1-1-2v-36z" fill="#111422"/>
<path transform="translate(156,635)" d="m0 0h8l9 3 6 4 5 6 2 7-1 9-4 6-7 6-9 3h-9l-10-3-7-6-4-9 1-10 3-6 8-7zm1 5-9 4-5 6-1 2v12l7 8 5 2h12l6-3 6-7 1-3v-8l-3-6-6-5-5-2z" fill="#0F111F"/>
<path transform="translate(373,636)" d="m0 0 4 1v17h28l1-15 2-2 5 1v40l-1 1h-6l-1-19-27-1-1 20h-6l-1-1v-25l1-15z" fill="#101321"/>
<path transform="translate(149,531)" d="m0 0 7 2 1 1v7h17l4 2h-4l-1 4 1 10-4 1-4-5-7-4v-2h-9l-7-2 2 8-4 4-5 2-12 1-1-5 1-12 1-1 8-1h11l1-8z" fill="#1B2038"/>
<path transform="translate(331,636)" d="m0 0h9l9 3 6 5v5l-5-1-9-6h-9l-6 3-2 6 17 4 10 3 6 6v6l-5 5-8 4-10 1-9-2-8-6-2-3v-5l4 1 8 7 7 2 10-1 6-5-2-4-3-2-11-3-9-2-8-5 1-7 3-5z" fill="#0F111E"/>
<path transform="translate(521,552)" d="m0 0h5l2 5 5-1v4l2-1-2 18-5 8-3-2 1-2-8 3-5 3h-5l1-17 2-3 6 3 1-4-9-7v-5l1-1z" fill="#15192B"/>
<path transform="translate(265,530)" d="m0 0 6 1 6 4v7l-3 3-4-2-2 1 1 1v10h-2l-2-7h-11l-8 1-1 5 8 1-2 3-7 2-2 2-2 5-3 3h-5-3l1-4 3-7 1-6-4-6 2-5 4-3 5 2h23v-10z" fill="#141829"/>
<path transform="translate(430,398)" d="m0 0 1 2-1 3 5-2-6 8-1 3h-2l-2 9v7l1 3-1 5h2v8l3 1 4 9 4 6 9 8 5 5 6 7v2h2v2h2l6 7 3 6-1 2-15-12-8-7-10-11-7-11-5-10-4-15v-8l2-12 7-14z" fill="#B7ACA5"/>
<path transform="translate(635,97)" d="m0 0 9 2 10 6 1 3-5 1-1 3-8-6-13-4h-16l-11 4-10 7-7 9-5 12-1 6v15l-2-4-1-13 4-15 1-9 2-3h2v-2h3v-2l8-5 14-4z" fill="#B7ACA5"/>
<path transform="translate(429,551)" d="m0 0h3l2 6-6 11-2 4 8 10 2 5-6-1-8-8-4 2-6 5-8 3-2-1 2-4 8-6 4-4-1-6-8-9v-6l6 2 7 10 3-1z" fill="#0E111D"/>
<path transform="translate(564,578)" d="m0 0 5 2 26 13-1 4-5 4-2 1h-9l-8-6-12-11 2-2v-2h3z" fill="#141828"/>
<path transform="translate(567,541)" d="m0 0h8l1 1v6l-1 1-31 2-8 1-3 9-1-4-4 1-2-6-5 1h-13l2-4h16l1-5 3-1 5 2h11l15-2z" fill="#14182C"/>
<path transform="translate(399,537)" d="m0 0 5 1 7 2h27l1-1 7 1 5 5-1 9-2 1-3-9-5-1v3l2 1-1 2h-2v-2l-10-1-22-1v-2l-10 1v-7z" fill="#0E101C"/>
<path transform="translate(286,561)" d="m0 0h2v2l5 2 3 2 8 1 4 1 10-1h9l1 2-4 4-6 4-8 3-5 1-5-1h-3l-1 3v-8l-3-1 1-2-3-1-4-6 1-2h-3z" fill="#151A2B"/>
<path transform="translate(535,562)" d="m0 0h2l2 7 8 4 7 6-3 5-7 4-9 2h-7l-2-3 6-10 2-14z" fill="#B2B5B4"/>
<path transform="translate(88,641)" d="m0 0h22l5 3 1 5-5 5-2 1h-22v-13z" fill="#B2B5B4"/>
<path transform="translate(104,572)" d="m0 0h2l-1 4-1 2 1 3-6 7-7 5-5 1-8-3-4-2v-4l16-7 4-4 7 1 1-2z" fill="#151A2C"/>
<path transform="translate(331,636)" d="m0 0h9l9 3 6 5v5l-5-1-9-6h-9l-6 3-2 6 13 3-2 1-1 3h-7l-9-5-1-5 3-7 7-4z" fill="#0F1220"/>
<path transform="translate(308,85)" d="m0 0 19 1 10-1 5 3 4 6 2 5 8 15 2 9v15l-2 9-2 1 2-13-1-14-4-11-6-8-7-6-12-6-7-2h-12l-12 3-8 4-2-1 11-6z" fill="#B7ACA5"/>
<path transform="translate(373,636)" d="m0 0 4 1v18h6l1 2h-6l-1 22h-6l-1-1v-25l1-15z" fill="#0D0F19"/>
<path transform="translate(500,557)" d="m0 0h1l-1 10-4 7-8 7-9 5-7-1-4-4v-3l15-4 8-6 6-7z" fill="#0D101B"/>
<path transform="translate(265,530)" d="m0 0 6 1 6 4v7l-3 3-4-2-2 1 1 1v10h-2l-2-7-7-1-1-3h-10l-8 3h-3l1-6-1-2 5 2h23v-10z" fill="#171B2F"/>
<path transform="translate(615,124)" d="m0 0h9l5 3 2 5-3 6-4 3-11 1-1-2v-9l2-6z" fill="#B7ACA5"/>
<path transform="translate(139,580)" d="m0 0h22v9l-1 2-8 1-14-1-1-2v-7z" fill="#B2B5B4"/>
<path transform="translate(240,566)" d="m0 0 1 2 5 1-1 4h-8l-1 6-2-2-6 1-7 2-13-4-1-4 1-1 17-1 4-2h3v2l6-2z" fill="#191E33"/>
<path transform="translate(521,552)" d="m0 0h5l2 5-1 15-3-1v-2l-5-2-10-8v-5l1-1z" fill="#B2B5B4"/>
<path transform="translate(137,573)" d="m0 0 9 2v1l-8 1 1 4-1 1v11l-3 5-5 1-1-1-1-13-1-7 3-3z" fill="#161A2C"/>
<path transform="translate(254,547)" d="m0 0h9l3 3 5 10-1 4-5 5-3 1v3l-4-1 3-5 2-8-1-5-6-1-6 1-5-1 1-5z" fill="#B2B5B4"/>
<path transform="translate(510,567)" d="m0 0 10 5 6 1-2 5-8 8-8 1 1-17z" fill="#B2B5B4"/>
<path transform="translate(125,542)" d="m0 0h9l2 5-4 2-3 9 3-1 3-5 3-2 7 1-2 4-5 3-10 2-5-1 1-16z" fill="#15192B"/>
<path transform="translate(539,559)" d="m0 0h33v1l-15 1 4 4-1 9h-3l-9-7-7-5h-1-2l-1 4v-4h-2v-2z" fill="#191E36"/>
<path transform="translate(160,564)" d="m0 0 9 2 25 5v1h-6v2l-4 1v2l-8-2-2 2-6-2v-2l-5-2v-4z" fill="#202749"/>
<path transform="translate(434,644)" d="m0 0h1l1 11 30 1v5h-31l-1-1z" fill="#181C32"/>
<path transform="translate(147,566)" d="m0 0 9 3 5 5v1h-17l-13-1 2-4z" fill="#B2B5B4"/>
<path transform="translate(234,636)" d="m0 0h5v33h-3-2z" fill="#0A0C13"/>
<path transform="translate(318,568)" d="m0 0h9l1 2-4 4-6 4-8 3-5 1 1-4 2-2 1-6h7z" fill="#141929"/>
<path transform="translate(92,544)" d="m0 0 5 2 1 1-1 11-4 8-2 2-4-1 2-9v-12z" fill="#0F111F"/>
<path transform="translate(557,560)" d="m0 0h16l-2 9-5 8h-2l-3-7-2-6-4-3z" fill="#15192A"/>
<path transform="translate(188,572)" d="m0 0h7l1 3-1 3-8 4-3 1-12-2-1-3 1-2h2l2-2 8 3v-2l4-1z" fill="#15192B"/>
<path transform="translate(567,541)" d="m0 0h8l1 1v6l-1 1h-23l-1-3z" fill="#0E101C"/>
<path transform="translate(540,560)" d="m0 0 4 1v2l13 10v3l-4 1-4-1-3-3-8-4v-7h2z" fill="#151A2C"/>
<path transform="translate(630,109)" d="m0 0 7 1 8 6 5 5v4l-5 1v-2h-2v-2h-3v-2l-5-2v-2l-5-1 2-5z" fill="#B2B3B2"/>
<path transform="translate(526,588)" d="m0 0 2 1h7l9-1v2l3 1v3l-10 3-9-1-3-2z" fill="#161B2E"/>
<path transform="translate(300,543)" d="m0 0 3 2v2l-12 1v2l3 3v4h-8l-1 3v-4l-4-1 5-6-8-1-1-2 23-1z" fill="#181D32"/>
<path transform="translate(104,572)" d="m0 0h2l-1 4-7 8-9 4-5 2-3-1-1-2 14-7 3-6 5 1 1-2z" fill="#21284A"/>
<path transform="translate(274,567)" d="m0 0 6 2v5l-14 1h-10l-2-2 3-3h2v2l3 1v-3l4-2 3 1z" fill="#21284A"/>
<path transform="translate(658,112)" d="m0 0 3 1 7 13v5l-1-3h-2v5l-3 1-4-11-3-4 1-2h3l-1-4z" fill="#B5AFAA"/>
<path transform="translate(429,551)" d="m0 0h3l2 6-6 11-2 1-6-3 4-5z" fill="#111424"/>
<path transform="translate(372,586)" d="m0 0 5 1v2h-2l-2 4-8 5-6-2-1-4 1-3 4-2 1 6 5-3z" fill="#0E101C"/>
<path transform="translate(95,574)" d="m0 0 2 1-2 5-6 4-7 4v4l-5-2-2-1v-4l16-7z" fill="#171C30"/>
<path transform="translate(524,581)" d="m0 0h2l1 6-6 4h-12l1-3 8-5z" fill="#0D0F1A"/>
<path transform="translate(174,543)" d="m0 0h5l1 1v14l-1 1h-5l-2-13z" fill="#0E101C"/>
<path transform="translate(266,531)" d="m0 0 7 1 4 3v7l-3 3-6-5-2-7z" fill="#15192A"/>
<path transform="translate(244,559)" d="m0 0h9l1 6-3 3-6-1-4-1 1-5z" fill="#B2B5B4"/>
<path transform="translate(114,548)" d="m0 0h8l-3 11-2 3h-5z" fill="#14182A"/>
<path transform="translate(552,563)" d="m0 0h7l2 2-1 9h-3l-8-7v-3z" fill="#B2B5B4"/>
<path transform="translate(279,579)" d="m0 0h7l3 6v4h-10l-1-8z" fill="#B2B5B4"/>
<path transform="translate(252,578)" d="m0 0 2 2-1 8-3 2h-5l-1-4 2-7z" fill="#B2B5B4"/>
<path transform="translate(376,658)" d="m0 0h1v21h-6v-9h2l1-10z" fill="#0D0F19"/>
<path transform="translate(261,579)" d="m0 0h9l1 1-1 8-5 1-3-1z" fill="#B2B4B3"/>
<path transform="translate(146,575)" d="m0 0h7l7 2 1 3h-22l-1-3z" fill="#171B2F"/>
<path transform="translate(163,546)" d="m0 0 8 1 2 2 1 8-4 1-4-5-4-3z" fill="#B2B5B4"/>
<path transform="translate(566,591)" d="m0 0 4 2 3 1v2l11 2 5-1 4-3v4l-6 4h-9l-8-6z" fill="#101220"/>
<path transform="translate(285,540)" d="m0 0 3 1 15 1 1 4-3-2-7 2h-15l2-2-1-1 1-2z" fill="#1F2645"/>
<path transform="translate(286,657)" d="m0 0h17v6h-1v-5l-7 1-3 3-12 1 1-5z" fill="#161A2F"/>
<path transform="translate(297,530)" d="m0 0 4 2-2 5-6 3h-7l3-5z" fill="#171C32"/>
<path transform="translate(414,575)" d="m0 0 2 2 1 4-5 4-8 3-2-1 2-4 8-6z" fill="#171B30"/>
<path transform="translate(500,546)" d="m0 0 1 2-2 5-10 1-1 1h-6l-1-2 6-5h6l-2 2h6z" fill="#0C0E18"/>
<path transform="translate(136,546)" d="m0 0 5 1-1 3-5 2-2 5-4 1 1-7 3-4z" fill="#B2B5B4"/>
<path transform="translate(207,572)" d="m0 0h9l-1 2 10 2-1 3-3 1-13-4z" fill="#0F1220"/>
<path transform="translate(163,552)" d="m0 0 4 1 3 3v2l4-1v2l3 1-7 1-10-4v-4l3 1z" fill="#181D34"/>
<path transform="translate(304,569)" d="m0 0h13l-2 2-6-1v6l-4 3h-5l2-6z" fill="#202749"/>
<path transform="translate(377,654)" d="m0 0h15v2l-4 1h10l4 2h-24l-1 3v-6h6l-6-1z" fill="#171B2F"/>
<path transform="translate(163,541)" d="m0 0h11l4 2h-4l-1 6-13-5 3-1z" fill="#171C2F"/>
<path transform="translate(615,107)" d="m0 0 7 1v4l-7 2-2-1v2l-4-2 2-4z" fill="#B2B4B3"/>
<path transform="translate(575,588)" d="m0 0 7 3 5 4v3l-9-3-6-4 1-2z" fill="#21284A"/>
<path transform="translate(236,539)" d="m0 0 5 2h23l-1 2-16 1-8 3h-3l1-6z" fill="#1F2646"/>
<path transform="translate(534,545)" d="m0 0h19l1 3 4 2-18 1 4-4h-10z" fill="#191E35"/>
<path transform="translate(540,560)" d="m0 0 4 1v2l2 5-1 3-6-1-1-1v-7h2z" fill="#0C0D17"/>
<path transform="translate(138,550)" d="m0 0 7 1-2 4-5 3h-5l1-4z" fill="#0D0F1B"/>
<path transform="translate(501,535)" d="m0 0h7l1 1v7l-7-1v-2h-2z" fill="#0E101B"/>
<path transform="translate(448,676)" d="m0 0h21v3h-18l-3-1z" fill="#0A0B12"/>
<path transform="translate(372,656)" d="m0 0 3 2-1 12-2 2-1 6h-1v-21z" fill="#181D32"/>
<path transform="translate(526,588)" d="m0 0 2 1h14l-2 2-7 3-1 1h-6l-1-5z" fill="#111524"/>
<path transform="translate(272,560)" d="m0 0 1 3h4v3h2v2l-7 1-4 1-2-1 1-4 5-2z" fill="#15192B"/>
<path transform="translate(365,549)" d="m0 0v3 1l22 1v1l-24 1-6 1 1-5z" fill="#232A4B"/>
<path transform="translate(440,545)" d="m0 0h5l3 5 1 5v28h-1v-27h-2l-2-7z" fill="#21284A"/>
<path transform="translate(580,590)" d="m0 0 12 1 3 2-1 3h-3l-3 3-3-1h2l-1-3-6-4z" fill="#15192A"/>
<path transform="translate(390,567)" d="m0 0 1 3-2 2h-13l-2-2 1-1z" fill="#1E2443"/>
<path transform="translate(658,112)" d="m0 0 3 1 7 13v5l-1-3h-2v5l-2-3-2-5 2-1-2-6z" fill="#B8ACA5"/>
<path transform="translate(256,552)" d="m0 0 3 1-1 5h-4l-1 3v-2h-8l3-4-3-2h8z" fill="#21284A"/>
<path transform="translate(445,639)" d="m0 0h21l-1 4-16-1h-2l-3-1z" fill="#0A0B12"/>
<path transform="translate(111,535)" d="m0 0h1l1 13-2 7-1 10h-1v-17l2-2-2-2z" fill="#202749"/>
<path transform="translate(529,549)" d="m0 0 1 2 4 1v8l-2 1v-4l-4 1-1-1v-7z" fill="#0B0C15"/>
<path transform="translate(510,549)" d="m0 0h11v4h-13z" fill="#0D101A"/>
<path transform="translate(104,533)" d="m0 0h7v5l-9 2v-5z" fill="#0E101C"/>
<path transform="translate(428,559)" d="m0 0h2v6l-4 4-6-3 5-5 1 1z" fill="#15192C"/>
<path transform="translate(482,578)" d="m0 0 1 3 5-1-5 4-4 2-7-1-2-2h6l1-2 4-1z" fill="#191E35"/>
<path transform="translate(379,586)" d="m0 0 2 1-2 3 8-1-3 3h-2v3l6 1v1l-8-1-3-5-2-2z" fill="#1C223E"/>
<path transform="translate(574,660)" d="m0 0h9l2 1v3h-11l-3-3z" fill="#0A0B12"/>
<path transform="translate(274,567)" d="m0 0 4 1 1 5h-11v-2z" fill="#B2B5B4"/>
<path transform="translate(232,563)" d="m0 0 7 2-1 4-1 1h-5-3l1-4z" fill="#0E101C"/>
<path transform="translate(478,577)" d="m0 0 2 1h2l-1 3h-4l-1 3-6-1 1-4z" fill="#0A0B13"/>
<path transform="translate(149,531)" d="m0 0 5 1-1 4-6 3h-2v-6z" fill="#0E101B"/>
<path transform="translate(335,655)" d="m0 0 9 1v3 1h-8l-2-1z" fill="#0D0E19"/>
<path transform="translate(198,648)" d="m0 0 1 4h2v16l-2 1v-7l-1-1z" fill="#15192A"/>
<path transform="translate(240,566)" d="m0 0 1 2 5 1-1 4h-7l-1-4z" fill="#B2B5B4"/>
<path transform="translate(242,565)" d="m0 0 5 2h6l-3 4h-2l-4 4-6-1v-1l7-1v-3l-4-1z" fill="#21284A"/>
<path transform="translate(154,533)" d="m0 0 3 1v8l2 1-5-1-2-4-2-2h3z" fill="#15192A"/>
<path transform="translate(557,560)" d="m0 0h6l2 4v3h-2l-1 2v-4l-5-2-2-2z" fill="#0B0D15"/>
<path transform="translate(406,661)" d="m0 0h1l1 6h3v6l-3 1-2 3z" fill="#141827"/>
<path transform="translate(302,591)" d="m0 0 5 1v4l-11 1 1-2h3l-1-3z" fill="#0A0B13"/>
<path transform="translate(318,568)" d="m0 0h9l1 2-2 3h-5v-2h-3z" fill="#121526"/>
<path transform="translate(300,543)" d="m0 0 3 2v2l-25 1-1-2 23-1z" fill="#131726"/>
<path transform="translate(265,530)" d="m0 0 4 1-2 2 2 7 1 2-6-1v-10z" fill="#21284A"/>
<path transform="translate(449,595)" d="m0 0 1 4-5 4-4-1 1-4 7-1z" fill="#0E101C"/>
<path transform="translate(436,545)" d="m0 0h3l-1 4-27-2v-1h20l5 1z" fill="#161B2D"/>
<path transform="translate(448,544)" d="m0 0 3 1-1 9-2 1-3-10z" fill="#131627"/>
<path transform="translate(279,548)" d="m0 0h9l-5 6-4-1z" fill="#B2B5B4"/>
<path transform="translate(155,592)" d="m0 0h6l-1 5-4-1h-1-4l1-3z" fill="#0A0B12"/>
<path transform="translate(371,584)" d="m0 0h2l-2 5-4 4h-2l1-5z" fill="#21284A"/>
<path transform="translate(409,672)" d="m0 0h3v7h-6l2-6z" fill="#0D0F1A"/>
<path transform="translate(568,660)" d="m0 0h6v3l9 1v1h-11l-5-2z" fill="#1B203A"/>
<path transform="translate(96,637)" d="m0 0h12l-1 3h-13l2-1z" fill="#0A0B12"/>
<path transform="translate(302,589)" d="m0 0 4 1 5 4v2l-2 1h-8v-1h6l-2-4-4-2z" fill="#1B213C"/>
<path transform="translate(216,575)" d="m0 0h7l2 1-1 3-3 1-5-2z" fill="#0E101D"/>
<path transform="translate(517,567)" d="m0 0 5 1 3 3v2l-7-1z" fill="#0E101C"/>
<path transform="translate(159,549)" d="m0 0 5 2-1 3h-3l-1 2-3-1 1-4z" fill="#131728"/>
<path transform="translate(535,547)" d="m0 0h9l-1 3-8 1z" fill="#0F121E"/>
<path transform="translate(550,285)" d="m0 0 1 2-4 6-8 7v-3l9-9z" fill="#B7ACA5"/>
<path transform="translate(387,589)" d="m0 0 2 2-2 1 2 4-7-1v-3z" fill="#0A0B13"/>
<path transform="translate(531,547)" d="m0 0h4l1 5-2 4v-4l-4-1z" fill="#171C2F"/>
<path transform="translate(501,563)" d="m0 0 3 4-2 4-3 2-2-2z" fill="#21284A"/>
<path transform="translate(374,560)" d="m0 0h1l1 5 14 1v1h-17v-3z" fill="#21284A"/>
<path transform="translate(297,530)" d="m0 0 4 2-2 5-4-1 1-4z" fill="#111322"/>
<path transform="translate(611,155)" d="m0 0h1v12h-4v-9h1v6h2z" fill="#292847"/>
<path transform="translate(135,584)" d="m0 0 2 4 1 5-2 3-1-4zm0 12m-4 1 4 1-2 1z" fill="#0C0E18"/>
<path transform="translate(271,580)" d="m0 0h1v10l-4 1-4-2 5-1z" fill="#21284A"/>
<path transform="translate(480,575)" d="m0 0 2 1-2 2-9 2-2 3-1-5z" fill="#1A2039"/>
<path transform="translate(141,576)" d="m0 0h5l1 2-2 2h-6l-1-3z" fill="#202748"/>
<path transform="translate(565,263)" d="m0 0 1 3-4 9h-2l1-6z" fill="#B8ACA5"/>
</svg>
